<?xml version="1.0" encoding="UTF-8" standalone="no"?>
<svg
   xmlns:dc="http://purl.org/dc/elements/1.1/"
   xmlns:cc="http://creativecommons.org/ns#"
   xmlns:rdf="http://www.w3.org/1999/02/22-rdf-syntax-ns#"
   xmlns:svg="http://www.w3.org/2000/svg"
   xmlns="http://www.w3.org/2000/svg"
   viewBox="0 0 666.66669 666.66669"
   height="666.66669"
   width="666.66669"
   xml:space="preserve"
   id="svg2"
   version="1.1"><metadata
     id="metadata8"><rdf:RDF><cc:Work
         rdf:about=""><dc:format>image/svg+xml</dc:format><dc:type
           rdf:resource="http://purl.org/dc/dcmitype/StillImage" /></cc:Work></rdf:RDF></metadata><defs
     id="defs6"><clipPath
       id="clipPath18"
       clipPathUnits="userSpaceOnUse"><path
         id="path16"
         d="M 0,500 H 500 V 0 H 0 Z" /></clipPath></defs><g
     transform="matrix(1.3333333,0,0,-1.3333333,0,666.66667)"
     id="g10"><g
       id="g12"><g
         clip-path="url(#clipPath18)"
         id="g14"><g
           transform="translate(499.9999,250)"
           id="g20"><path
             id="path22"
             style="fill:#ffffff;fill-opacity:1;fill-rule:nonzero;stroke:none"
             d="m 0,0 c 0,138.071 -111.929,250 -250,250 -138.071,0 -250,-111.929 -250,-250 0,-138.071 111.929,-250 250,-250 138.071,0 250,111.929 250,250" /></g><g
           transform="translate(165.7655,253.9555)"
           id="g24"><path
             id="path26"
             style="fill:#f2af30;fill-opacity:1;fill-rule:nonzero;stroke:none"
             d="m 0,0 c 0,73.941 58.328,134.251 131.482,137.449 0.016,0.658 0.027,1.317 0.015,1.982 -0.452,25.65 -21.612,46.077 -47.263,45.624 0,0 -2.291,-0.04 -6.587,-0.116 -4.297,-0.153 -10.615,-0.495 -18.61,-1.569 -7.988,-1.074 -17.66,-2.899 -28.456,-6.11 -2.697,-0.804 -5.463,-1.695 -8.287,-2.682 -1.404,-0.51 -2.831,-1.028 -4.275,-1.553 -1.518,-0.595 -3.055,-1.198 -4.614,-1.809 -1.369,-0.577 -2.755,-1.161 -4.156,-1.753 -1.475,-0.666 -2.967,-1.34 -4.478,-2.022 -2.998,-1.404 -6.029,-2.92 -9.08,-4.553 -24.38,-12.944 -49.93,-34.072 -68.794,-63.136 -9.439,-14.458 -17.182,-30.786 -22.419,-48.211 -1.333,-4.447 -2.426,-8.563 -3.511,-13.448 -0.904,-4.048 -1.808,-8.865 -2.452,-13.315 -0.67,-4.543 -1.167,-9.115 -1.501,-13.695 -0.172,-2.29 -0.286,-4.583 -0.374,-6.875 l -0.125,-6.514 0.032,-3.795 0.093,-3.437 c 0.088,-2.293 0.202,-4.585 0.374,-6.875 0.334,-4.581 0.831,-9.153 1.501,-13.695 0.346,-2.344 0.678,-4.375 1.156,-6.953 l 0.564,-2.914 0.777,-3.657 c 0.994,-4.467 2.153,-8.885 3.466,-13.239 5.289,-17.506 12.862,-33.573 22.538,-48.391 9.123,-14.047 20.588,-27.122 32.21,-37.445 2.947,-2.636 5.943,-5.135 8.959,-7.515 1.526,-1.165 3.044,-2.321 4.549,-3.468 1.627,-1.165 3.244,-2.321 4.845,-3.467 1.455,-0.975 2.898,-1.943 4.327,-2.901 1.548,-0.977 3.082,-1.945 4.602,-2.904 3.068,-1.877 6.135,-3.622 9.183,-5.257 12.197,-6.541 24.106,-11.157 34.89,-14.371 2.698,-0.803 5.328,-1.518 7.877,-2.158 1.296,-0.311 2.568,-0.616 3.817,-0.916 1.162,-0.254 2.303,-0.504 3.422,-0.748 5.098,-1.059 9.269,-1.738 13.34,-2.288 7.995,-1.074 14.313,-1.416 18.61,-1.569 4.062,-0.075 6.227,-0.115 6.227,-0.115 17.992,-0.286 35.732,8.721 45.709,25.23 5.218,8.634 7.636,18.173 7.531,27.569 C 61.345,-137.327 0,-75.83 0,0" /></g><g
           transform="translate(343.0049,193.6807)"
           id="g28"><path
             id="path30"
             style="fill:#f2af30;fill-opacity:1;fill-rule:nonzero;stroke:none"
             d="m 0,0 c -6.4,0 -12.801,2.441 -17.684,7.325 l -33.957,33.956 c -9.766,9.767 -9.766,25.601 0,35.368 9.766,9.767 25.602,9.766 35.368,0 L 0,60.376 50.229,110.605 c 9.766,9.767 25.602,9.767 35.368,0 9.766,-9.766 9.766,-25.6 0,-35.367 L 17.684,7.325 C 12.801,2.442 6.4,0 0,0" /></g><g
           transform="translate(277.6456,160.5844)"
           id="g32"><path
             id="path34"
             style="fill:#f29d30;fill-opacity:1;fill-rule:nonzero;stroke:none"
             d="m 0,0 -27.287,16.49 c 0,0 -0.4,0.242 -1.175,0.711 -1.008,0.458 -0.665,1.21 -1.746,1.998 -1.115,1.091 -2.523,2.723 -4.08,4.578 -15.27,16.081 -24.97,40.114 -24.97,66.972 0,6.521 0.577,12.873 1.661,18.988 -0.009,0.048 -0.016,0.111 -0.022,0.188 l 0.053,-0.007 c 1.702,9.505 4.641,18.429 8.6,26.494 0.007,0.014 0.012,0.029 0.019,0.043 l 0.045,0.086 c 0.341,0.691 0.69,1.375 1.046,2.054 -0.17,-0.063 -0.494,-0.191 -0.413,-0.149 l 0.166,0.146 0.457,0.401 c 0.213,0.401 0.427,0.801 0.644,1.197 0.094,0.255 0.256,0.535 0.417,0.81 l 0.852,1.454 c 0.144,0.234 0.277,0.451 0.418,0.681 0.179,0.299 0.363,0.593 0.545,0.889 0.265,0.433 0.541,0.881 0.798,1.301 0.155,0.241 0.317,0.468 0.473,0.706 0.413,0.632 0.832,1.259 1.259,1.877 0.042,0.061 0.083,0.125 0.126,0.185 0.579,0.834 1.174,1.65 1.778,2.456 0.053,0.071 0.106,0.142 0.159,0.213 0.394,0.523 0.793,1.039 1.198,1.55 0.831,1.064 1.659,2.099 2.466,3.064 2.448,2.784 4.68,5.447 6.303,6.938 1.672,1.7 2.564,2.607 2.564,2.607 l 34.029,34.585 c 7.951,8.131 12.922,19.162 13.218,31.314 -73.153,-3.198 -131.481,-63.508 -131.481,-137.449 0,-75.83 61.345,-137.327 137.114,-137.585 C 25.04,-26.716 16.077,-9.716 0,0" /></g></g></g></g></svg>